<svg width="25" height="25" viewBox="0 0 25 25" fill="none" xmlns="http://www.w3.org/2000/svg">
<path d="M12.5146 13.3301L5.87402 19.9708C5.41504 20.4297 4.67285 20.4297 4.21875 19.9708L3.11523 18.8672C2.65625 18.4083 2.65625 17.6661 3.11523 17.212L7.82227 12.5049L3.11523 7.79791C2.65625 7.33893 2.65625 6.59674 3.11523 6.14264L4.21387 5.02936C4.67285 4.57037 5.41504 4.57037 5.86914 5.02936L12.5098 11.67C12.9736 12.129 12.9736 12.8712 12.5146 13.3301ZM21.8896 11.67L15.249 5.02936C14.79 4.57037 14.0479 4.57037 13.5938 5.02936L12.4902 6.13287C12.0312 6.59186 12.0312 7.33405 12.4902 7.78815L17.1973 12.4952L12.4902 17.2022C12.0312 17.6612 12.0312 18.4034 12.4902 18.8575L13.5938 19.961C14.0527 20.42 14.7949 20.42 15.249 19.961L21.8896 13.3204C22.3486 12.8712 22.3486 12.129 21.8896 11.67Z" fill="#FF64AE"/>
</svg>
