<svg width="258" height="63" viewBox="0 0 258 63" fill="none" xmlns="http://www.w3.org/2000/svg">
<circle cx="31.5" cy="31.5" r="31.5" fill="#FF64AE"/>
<rect x="39" y="26" width="40" height="11" rx="5.5" fill="white"/>
<circle cx="28" cy="26" r="3" fill="white"/>
<circle cx="18.5" cy="17.5" r="6.5" fill="white"/>
<path d="M107.224 31.384C107.832 31.48 108.384 31.728 108.88 32.128C109.392 32.528 109.792 33.024 110.08 33.616C110.384 34.208 110.536 34.84 110.536 35.512C110.536 36.36 110.32 37.128 109.888 37.816C109.456 38.488 108.824 39.024 107.992 39.424C107.176 39.808 106.208 40 105.088 40H98.848V23.272H104.848C105.984 23.272 106.952 23.464 107.752 23.848C108.552 24.216 109.152 24.72 109.552 25.36C109.952 26 110.152 26.72 110.152 27.52C110.152 28.512 109.88 29.336 109.336 29.992C108.808 30.632 108.104 31.096 107.224 31.384ZM101.032 30.496H104.704C105.728 30.496 106.52 30.256 107.08 29.776C107.64 29.296 107.92 28.632 107.92 27.784C107.92 26.936 107.64 26.272 107.08 25.792C106.52 25.312 105.712 25.072 104.656 25.072H101.032V30.496ZM104.896 38.2C105.984 38.2 106.832 37.944 107.44 37.432C108.048 36.92 108.352 36.208 108.352 35.296C108.352 34.368 108.032 33.64 107.392 33.112C106.752 32.568 105.896 32.296 104.824 32.296H101.032V38.2H104.896ZM127.967 32.92C127.967 33.336 127.943 33.776 127.895 34.24H117.383C117.463 35.536 117.903 36.552 118.703 37.288C119.519 38.008 120.503 38.368 121.655 38.368C122.599 38.368 123.383 38.152 124.007 37.72C124.647 37.272 125.095 36.68 125.351 35.944H127.703C127.351 37.208 126.647 38.24 125.591 39.04C124.535 39.824 123.223 40.216 121.655 40.216C120.407 40.216 119.287 39.936 118.295 39.376C117.319 38.816 116.551 38.024 115.991 37C115.431 35.96 115.151 34.76 115.151 33.4C115.151 32.04 115.423 30.848 115.967 29.824C116.511 28.8 117.271 28.016 118.247 27.472C119.239 26.912 120.375 26.632 121.655 26.632C122.903 26.632 124.007 26.904 124.967 27.448C125.927 27.992 126.663 28.744 127.175 29.704C127.703 30.648 127.967 31.72 127.967 32.92ZM125.711 32.464C125.711 31.632 125.527 30.92 125.159 30.328C124.791 29.72 124.287 29.264 123.647 28.96C123.023 28.64 122.327 28.48 121.559 28.48C120.455 28.48 119.511 28.832 118.727 29.536C117.959 30.24 117.519 31.216 117.407 32.464H125.711ZM132.434 33.376C132.434 32.032 132.706 30.856 133.25 29.848C133.794 28.824 134.538 28.032 135.482 27.472C136.442 26.912 137.506 26.632 138.674 26.632C139.826 26.632 140.826 26.88 141.674 27.376C142.522 27.872 143.154 28.496 143.57 29.248V26.848H145.778V40H143.57V37.552C143.138 38.32 142.49 38.96 141.626 39.472C140.778 39.968 139.786 40.216 138.65 40.216C137.482 40.216 136.426 39.928 135.482 39.352C134.538 38.776 133.794 37.968 133.25 36.928C132.706 35.888 132.434 34.704 132.434 33.376ZM143.57 33.4C143.57 32.408 143.37 31.544 142.97 30.808C142.57 30.072 142.026 29.512 141.338 29.128C140.666 28.728 139.922 28.528 139.106 28.528C138.29 28.528 137.546 28.72 136.874 29.104C136.202 29.488 135.666 30.048 135.266 30.784C134.866 31.52 134.666 32.384 134.666 33.376C134.666 34.384 134.866 35.264 135.266 36.016C135.666 36.752 136.202 37.32 136.874 37.72C137.546 38.104 138.29 38.296 139.106 38.296C139.922 38.296 140.666 38.104 141.338 37.72C142.026 37.32 142.57 36.752 142.97 36.016C143.37 35.264 143.57 34.392 143.57 33.4ZM163.532 26.848V40H161.348V38.056C160.932 38.728 160.348 39.256 159.596 39.64C158.86 40.008 158.044 40.192 157.148 40.192C156.124 40.192 155.204 39.984 154.388 39.568C153.572 39.136 152.924 38.496 152.444 37.648C151.98 36.8 151.748 35.768 151.748 34.552V26.848H153.908V34.264C153.908 35.56 154.236 36.56 154.892 37.264C155.548 37.952 156.444 38.296 157.58 38.296C158.748 38.296 159.668 37.936 160.34 37.216C161.012 36.496 161.348 35.448 161.348 34.072V26.848H163.532ZM172.284 28.648V36.4C172.284 37.04 172.42 37.496 172.692 37.768C172.964 38.024 173.436 38.152 174.108 38.152H175.716V40H173.748C172.532 40 171.62 39.72 171.012 39.16C170.404 38.6 170.1 37.68 170.1 36.4V28.648H168.396V26.848H170.1V23.536H172.284V26.848H175.716V28.648H172.284ZM181.89 24.712C181.474 24.712 181.122 24.568 180.834 24.28C180.546 23.992 180.402 23.64 180.402 23.224C180.402 22.808 180.546 22.456 180.834 22.168C181.122 21.88 181.474 21.736 181.89 21.736C182.29 21.736 182.626 21.88 182.898 22.168C183.186 22.456 183.33 22.808 183.33 23.224C183.33 23.64 183.186 23.992 182.898 24.28C182.626 24.568 182.29 24.712 181.89 24.712ZM182.946 26.848V40H180.762V26.848H182.946ZM188.252 33.4C188.252 32.04 188.524 30.856 189.068 29.848C189.612 28.824 190.364 28.032 191.324 27.472C192.3 26.912 193.412 26.632 194.66 26.632C196.276 26.632 197.604 27.024 198.644 27.808C199.7 28.592 200.396 29.68 200.732 31.072H198.38C198.156 30.272 197.716 29.64 197.06 29.176C196.42 28.712 195.62 28.48 194.66 28.48C193.412 28.48 192.404 28.912 191.636 29.776C190.868 30.624 190.484 31.832 190.484 33.4C190.484 34.984 190.868 36.208 191.636 37.072C192.404 37.936 193.412 38.368 194.66 38.368C195.62 38.368 196.42 38.144 197.06 37.696C197.7 37.248 198.14 36.608 198.38 35.776H200.732C200.38 37.12 199.676 38.2 198.62 39.016C197.564 39.816 196.244 40.216 194.66 40.216C193.412 40.216 192.3 39.936 191.324 39.376C190.364 38.816 189.612 38.024 189.068 37C188.524 35.976 188.252 34.776 188.252 33.4ZM218.046 32.92C218.046 33.336 218.022 33.776 217.974 34.24H207.462C207.542 35.536 207.982 36.552 208.782 37.288C209.598 38.008 210.582 38.368 211.734 38.368C212.678 38.368 213.462 38.152 214.086 37.72C214.726 37.272 215.174 36.68 215.43 35.944H217.782C217.43 37.208 216.726 38.24 215.67 39.04C214.614 39.824 213.302 40.216 211.734 40.216C210.486 40.216 209.366 39.936 208.374 39.376C207.398 38.816 206.63 38.024 206.07 37C205.51 35.96 205.23 34.76 205.23 33.4C205.23 32.04 205.502 30.848 206.046 29.824C206.59 28.8 207.35 28.016 208.326 27.472C209.318 26.912 210.454 26.632 211.734 26.632C212.982 26.632 214.086 26.904 215.046 27.448C216.006 27.992 216.742 28.744 217.254 29.704C217.782 30.648 218.046 31.72 218.046 32.92ZM215.79 32.464C215.79 31.632 215.606 30.92 215.238 30.328C214.87 29.72 214.366 29.264 213.726 28.96C213.102 28.64 212.406 28.48 211.638 28.48C210.534 28.48 209.59 28.832 208.806 29.536C208.038 30.24 207.598 31.216 207.486 32.464H215.79Z" fill="white"/>
</svg>
