<svg width="354" height="165" viewBox="0 0 354 165" fill="none" xmlns="http://www.w3.org/2000/svg">
<path d="M182.704 74.832V76.64H179.728V86H177.488V76.64H174.512V74.832H182.704ZM188.178 78.512C188.466 78.0427 188.84 77.6747 189.298 77.408C189.768 77.1413 190.301 77.008 190.898 77.008V79.36H190.306C189.602 79.36 189.069 79.5253 188.706 79.856C188.354 80.1867 188.178 80.7627 188.178 81.584V86H185.938V77.136H188.178V78.512ZM202.247 81.376C202.247 81.696 202.226 81.984 202.183 82.24H195.703C195.756 82.88 195.98 83.3813 196.375 83.744C196.77 84.1067 197.255 84.288 197.831 84.288C198.663 84.288 199.255 83.9307 199.607 83.216H202.023C201.767 84.0693 201.276 84.7733 200.551 85.328C199.826 85.872 198.935 86.144 197.879 86.144C197.026 86.144 196.258 85.9573 195.575 85.584C194.903 85.2 194.375 84.6613 193.991 83.968C193.618 83.2747 193.431 82.4747 193.431 81.568C193.431 80.6507 193.618 79.8453 193.991 79.152C194.364 78.4587 194.887 77.9253 195.559 77.552C196.231 77.1787 197.004 76.992 197.879 76.992C198.722 76.992 199.474 77.1733 200.135 77.536C200.807 77.8987 201.324 78.416 201.687 79.088C202.06 79.7493 202.247 80.512 202.247 81.376ZM199.927 80.736C199.916 80.16 199.708 79.7013 199.303 79.36C198.898 79.008 198.402 78.832 197.815 78.832C197.26 78.832 196.791 79.0027 196.407 79.344C196.034 79.6747 195.804 80.1387 195.719 80.736H199.927ZM204.906 81.536C204.906 80.64 205.082 79.8453 205.434 79.152C205.797 78.4587 206.282 77.9253 206.89 77.552C207.509 77.1787 208.197 76.992 208.954 76.992C209.615 76.992 210.191 77.1253 210.682 77.392C211.183 77.6587 211.583 77.9947 211.882 78.4V77.136H214.138V86H211.882V84.704C211.594 85.12 211.194 85.4667 210.682 85.744C210.181 86.0107 209.599 86.144 208.938 86.144C208.191 86.144 207.509 85.952 206.89 85.568C206.282 85.184 205.797 84.6453 205.434 83.952C205.082 83.248 204.906 82.4427 204.906 81.536ZM211.882 81.568C211.882 81.024 211.775 80.56 211.562 80.176C211.349 79.7813 211.061 79.4827 210.698 79.28C210.335 79.0667 209.946 78.96 209.53 78.96C209.114 78.96 208.73 79.0613 208.378 79.264C208.026 79.4667 207.738 79.7653 207.514 80.16C207.301 80.544 207.194 81.0027 207.194 81.536C207.194 82.0693 207.301 82.5387 207.514 82.944C207.738 83.3387 208.026 83.6427 208.378 83.856C208.741 84.0693 209.125 84.176 209.53 84.176C209.946 84.176 210.335 84.0747 210.698 83.872C211.061 83.6587 211.349 83.36 211.562 82.976C211.775 82.5813 211.882 82.112 211.882 81.568ZM220.534 78.976V83.264C220.534 83.5627 220.603 83.7813 220.742 83.92C220.891 84.048 221.137 84.112 221.478 84.112H222.518V86H221.11C219.222 86 218.278 85.0827 218.278 83.248V78.976H217.222V77.136H218.278V74.944H220.534V77.136H222.518V78.976H220.534ZM236.737 77.008C237.825 77.008 238.7 77.344 239.361 78.016C240.033 78.6773 240.369 79.6053 240.369 80.8V86H238.129V81.104C238.129 80.4107 237.953 79.8827 237.601 79.52C237.249 79.1467 236.769 78.96 236.161 78.96C235.553 78.96 235.068 79.1467 234.705 79.52C234.353 79.8827 234.177 80.4107 234.177 81.104V86H231.937V81.104C231.937 80.4107 231.761 79.8827 231.409 79.52C231.057 79.1467 230.577 78.96 229.969 78.96C229.35 78.96 228.86 79.1467 228.497 79.52C228.145 79.8827 227.969 80.4107 227.969 81.104V86H225.729V77.136H227.969V78.208C228.257 77.8347 228.625 77.5413 229.073 77.328C229.532 77.1147 230.033 77.008 230.577 77.008C231.27 77.008 231.889 77.1573 232.433 77.456C232.977 77.744 233.398 78.16 233.697 78.704C233.985 78.192 234.401 77.7813 234.945 77.472C235.5 77.1627 236.097 77.008 236.737 77.008ZM252.335 81.376C252.335 81.696 252.313 81.984 252.271 82.24H245.791C245.844 82.88 246.068 83.3813 246.463 83.744C246.857 84.1067 247.343 84.288 247.919 84.288C248.751 84.288 249.343 83.9307 249.695 83.216H252.111C251.855 84.0693 251.364 84.7733 250.639 85.328C249.913 85.872 249.023 86.144 247.967 86.144C247.113 86.144 246.345 85.9573 245.663 85.584C244.991 85.2 244.463 84.6613 244.079 83.968C243.705 83.2747 243.519 82.4747 243.519 81.568C243.519 80.6507 243.705 79.8453 244.079 79.152C244.452 78.4587 244.975 77.9253 245.647 77.552C246.319 77.1787 247.092 76.992 247.967 76.992C248.809 76.992 249.561 77.1733 250.223 77.536C250.895 77.8987 251.412 78.416 251.775 79.088C252.148 79.7493 252.335 80.512 252.335 81.376ZM250.015 80.736C250.004 80.16 249.796 79.7013 249.391 79.36C248.985 79.008 248.489 78.832 247.903 78.832C247.348 78.832 246.879 79.0027 246.495 79.344C246.121 79.6747 245.892 80.1387 245.807 80.736H250.015ZM260.482 77.008C261.538 77.008 262.391 77.344 263.042 78.016C263.692 78.6773 264.018 79.6053 264.018 80.8V86H261.778V81.104C261.778 80.4 261.602 79.8613 261.25 79.488C260.898 79.104 260.418 78.912 259.81 78.912C259.191 78.912 258.7 79.104 258.338 79.488C257.986 79.8613 257.81 80.4 257.81 81.104V86H255.57V77.136H257.81V78.24C258.108 77.856 258.487 77.5573 258.946 77.344C259.415 77.12 259.927 77.008 260.482 77.008ZM270.356 78.976V83.264C270.356 83.5627 270.425 83.7813 270.564 83.92C270.713 84.048 270.958 84.112 271.3 84.112H272.34V86H270.932C269.044 86 268.1 85.0827 268.1 83.248V78.976H267.044V77.136H268.1V74.944H270.356V77.136H272.34V78.976H270.356ZM278.943 86.144C278.218 86.144 277.567 86.016 276.991 85.76C276.415 85.4933 275.956 85.136 275.615 84.688C275.284 84.24 275.103 83.744 275.071 83.2H277.327C277.37 83.5413 277.535 83.824 277.823 84.048C278.122 84.272 278.49 84.384 278.927 84.384C279.354 84.384 279.684 84.2987 279.919 84.128C280.164 83.9573 280.287 83.7387 280.287 83.472C280.287 83.184 280.138 82.9707 279.839 82.832C279.551 82.6827 279.087 82.5227 278.447 82.352C277.786 82.192 277.242 82.0267 276.815 81.856C276.399 81.6853 276.036 81.424 275.727 81.072C275.428 80.72 275.279 80.2453 275.279 79.648C275.279 79.1573 275.418 78.7093 275.695 78.304C275.983 77.8987 276.388 77.5787 276.911 77.344C277.444 77.1093 278.068 76.992 278.783 76.992C279.839 76.992 280.682 77.2587 281.311 77.792C281.94 78.3147 282.287 79.024 282.351 79.92H280.207C280.175 79.568 280.026 79.2907 279.759 79.088C279.503 78.8747 279.156 78.768 278.719 78.768C278.314 78.768 277.999 78.8427 277.775 78.992C277.562 79.1413 277.455 79.3493 277.455 79.616C277.455 79.9147 277.604 80.144 277.903 80.304C278.202 80.4533 278.666 80.608 279.295 80.768C279.935 80.928 280.463 81.0933 280.879 81.264C281.295 81.4347 281.652 81.7013 281.951 82.064C282.26 82.416 282.42 82.8853 282.431 83.472C282.431 83.984 282.287 84.4427 281.999 84.848C281.722 85.2533 281.316 85.5733 280.783 85.808C280.26 86.032 279.647 86.144 278.943 86.144ZM301.314 74.832L297.218 86H294.498L290.402 74.832H292.802L295.874 83.712L298.93 74.832H301.314ZM305.393 76.08C304.998 76.08 304.668 75.9573 304.401 75.712C304.145 75.456 304.017 75.1413 304.017 74.768C304.017 74.3947 304.145 74.0853 304.401 73.84C304.668 73.584 304.998 73.456 305.393 73.456C305.788 73.456 306.113 73.584 306.369 73.84C306.636 74.0853 306.769 74.3947 306.769 74.768C306.769 75.1413 306.636 75.456 306.369 75.712C306.113 75.9573 305.788 76.08 305.393 76.08ZM306.497 77.136V86H304.257V77.136H306.497ZM309.734 81.536C309.734 80.64 309.91 79.8453 310.262 79.152C310.625 78.4587 311.116 77.9253 311.734 77.552C312.353 77.1787 313.041 76.992 313.798 76.992C314.374 76.992 314.924 77.12 315.446 77.376C315.969 77.6213 316.385 77.952 316.694 78.368V74.16H318.966V86H316.694V84.688C316.417 85.1253 316.028 85.4773 315.526 85.744C315.025 86.0107 314.444 86.144 313.782 86.144C313.036 86.144 312.353 85.952 311.734 85.568C311.116 85.184 310.625 84.6453 310.262 83.952C309.91 83.248 309.734 82.4427 309.734 81.536ZM316.71 81.568C316.71 81.024 316.604 80.56 316.39 80.176C316.177 79.7813 315.889 79.4827 315.526 79.28C315.164 79.0667 314.774 78.96 314.358 78.96C313.942 78.96 313.558 79.0613 313.206 79.264C312.854 79.4667 312.566 79.7653 312.342 80.16C312.129 80.544 312.022 81.0027 312.022 81.536C312.022 82.0693 312.129 82.5387 312.342 82.944C312.566 83.3387 312.854 83.6427 313.206 83.856C313.569 84.0693 313.953 84.176 314.358 84.176C314.774 84.176 315.164 84.0747 315.526 83.872C315.889 83.6587 316.177 83.36 316.39 82.976C316.604 82.5813 316.71 82.112 316.71 81.568ZM330.994 81.376C330.994 81.696 330.973 81.984 330.93 82.24H324.45C324.503 82.88 324.727 83.3813 325.122 83.744C325.517 84.1067 326.002 84.288 326.578 84.288C327.41 84.288 328.002 83.9307 328.354 83.216H330.77C330.514 84.0693 330.023 84.7733 329.298 85.328C328.573 85.872 327.682 86.144 326.626 86.144C325.773 86.144 325.005 85.9573 324.322 85.584C323.65 85.2 323.122 84.6613 322.738 83.968C322.365 83.2747 322.178 82.4747 322.178 81.568C322.178 80.6507 322.365 79.8453 322.738 79.152C323.111 78.4587 323.634 77.9253 324.306 77.552C324.978 77.1787 325.751 76.992 326.626 76.992C327.469 76.992 328.221 77.1733 328.882 77.536C329.554 77.8987 330.071 78.416 330.434 79.088C330.807 79.7493 330.994 80.512 330.994 81.376ZM328.674 80.736C328.663 80.16 328.455 79.7013 328.05 79.36C327.645 79.008 327.149 78.832 326.562 78.832C326.007 78.832 325.538 79.0027 325.154 79.344C324.781 79.6747 324.551 80.1387 324.466 80.736H328.674ZM338.165 86.144C337.312 86.144 336.544 85.9573 335.861 85.584C335.178 85.2 334.64 84.6613 334.245 83.968C333.861 83.2747 333.669 82.4747 333.669 81.568C333.669 80.6613 333.866 79.8613 334.261 79.168C334.666 78.4747 335.216 77.9413 335.909 77.568C336.602 77.184 337.376 76.992 338.229 76.992C339.082 76.992 339.856 77.184 340.549 77.568C341.242 77.9413 341.786 78.4747 342.181 79.168C342.586 79.8613 342.789 80.6613 342.789 81.568C342.789 82.4747 342.581 83.2747 342.165 83.968C341.76 84.6613 341.205 85.2 340.501 85.584C339.808 85.9573 339.029 86.144 338.165 86.144ZM338.165 84.192C338.57 84.192 338.949 84.096 339.301 83.904C339.664 83.7013 339.952 83.4027 340.165 83.008C340.378 82.6133 340.485 82.1333 340.485 81.568C340.485 80.7253 340.261 80.08 339.813 79.632C339.376 79.1733 338.837 78.944 338.197 78.944C337.557 78.944 337.018 79.1733 336.581 79.632C336.154 80.08 335.941 80.7253 335.941 81.568C335.941 82.4107 336.149 83.0613 336.565 83.52C336.992 83.968 337.525 84.192 338.165 84.192ZM349.424 86.144C348.699 86.144 348.048 86.016 347.472 85.76C346.896 85.4933 346.437 85.136 346.096 84.688C345.765 84.24 345.584 83.744 345.552 83.2H347.808C347.851 83.5413 348.016 83.824 348.304 84.048C348.603 84.272 348.971 84.384 349.408 84.384C349.835 84.384 350.165 84.2987 350.4 84.128C350.645 83.9573 350.768 83.7387 350.768 83.472C350.768 83.184 350.619 82.9707 350.32 82.832C350.032 82.6827 349.568 82.5227 348.928 82.352C348.267 82.192 347.723 82.0267 347.296 81.856C346.88 81.6853 346.517 81.424 346.208 81.072C345.909 80.72 345.76 80.2453 345.76 79.648C345.76 79.1573 345.899 78.7093 346.176 78.304C346.464 77.8987 346.869 77.5787 347.392 77.344C347.925 77.1093 348.549 76.992 349.264 76.992C350.32 76.992 351.163 77.2587 351.792 77.792C352.421 78.3147 352.768 79.024 352.832 79.92H350.688C350.656 79.568 350.507 79.2907 350.24 79.088C349.984 78.8747 349.637 78.768 349.2 78.768C348.795 78.768 348.48 78.8427 348.256 78.992C348.043 79.1413 347.936 79.3493 347.936 79.616C347.936 79.9147 348.085 80.144 348.384 80.304C348.683 80.4533 349.147 80.608 349.776 80.768C350.416 80.928 350.944 81.0933 351.36 81.264C351.776 81.4347 352.133 81.7013 352.432 82.064C352.741 82.416 352.901 82.8853 352.912 83.472C352.912 83.984 352.768 84.4427 352.48 84.848C352.203 85.2533 351.797 85.5733 351.264 85.808C350.741 86.032 350.128 86.144 349.424 86.144Z" fill="white"/>
<g filter="url(#filter0_d_457_138)">
<circle cx="82.5" cy="82.5" r="62.5" stroke="white" stroke-width="2" shape-rendering="crispEdges"/>
</g>
<path d="M103.5 77.4378C108.167 80.1321 108.167 86.8679 103.5 89.5622L78.75 103.852C74.0833 106.546 68.25 103.178 68.25 97.7894L68.25 69.2106C68.25 63.822 74.0833 60.4541 78.75 63.1484L103.5 77.4378Z" stroke="white" stroke-width="2"/>
<defs>
<filter id="filter0_d_457_138" x="0" y="0" width="165" height="165" filterUnits="userSpaceOnUse" color-interpolation-filters="sRGB">
<feFlood flood-opacity="0" result="BackgroundImageFix"/>
<feColorMatrix in="SourceAlpha" type="matrix" values="0 0 0 0 0 0 0 0 0 0 0 0 0 0 0 0 0 0 127 0" result="hardAlpha"/>
<feMorphology radius="7" operator="dilate" in="SourceAlpha" result="effect1_dropShadow_457_138"/>
<feOffset/>
<feGaussianBlur stdDeviation="6"/>
<feComposite in2="hardAlpha" operator="out"/>
<feColorMatrix type="matrix" values="0 0 0 0 1 0 0 0 0 1 0 0 0 0 1 0 0 0 0.15 0"/>
<feBlend mode="normal" in2="BackgroundImageFix" result="effect1_dropShadow_457_138"/>
<feBlend mode="normal" in="SourceGraphic" in2="effect1_dropShadow_457_138" result="shape"/>
</filter>
</defs>
</svg>
