<svg width="475" height="314" viewBox="0 0 475 314" fill="none" xmlns="http://www.w3.org/2000/svg">
<path d="M420.191 85.0765C410.773 66.3365 390.092 52.2436 369.965 56.5676C357.912 59.1574 345.935 67.8416 334.379 63.4814C326.049 60.3394 321.349 51.426 314.346 45.8343C303.57 37.2276 288.274 37.3282 275.142 41.184C262.009 45.0398 249.988 52.1315 237.014 56.5165C214.903 63.9875 190.224 63.1764 168.624 54.268C159.141 50.3578 150.266 44.9606 140.614 41.517C130.961 38.0733 120.013 36.7363 110.696 41.0422C101.379 45.348 94.6923 56.6105 97.9266 66.5492C98.5712 68.5307 99.5833 70.4841 99.4498 72.5678C99.2371 75.9109 96.0885 78.3589 92.902 79.1024C89.7155 79.8459 86.3954 79.3612 83.1281 79.4453C68.4682 79.8261 55.3677 93.5349 55.2984 108.567C55.2407 121.033 62.7413 131.987 69.1523 142.579C75.5649 153.17 81.3264 165.88 77.5068 177.715C75.2418 184.732 69.9287 190.222 66.4471 196.695C57.4233 213.479 62.2468 235.697 74.8478 249.852C87.4488 264.008 106.321 270.935 124.947 272.585C143.573 274.234 162.252 271.138 180.707 268.078C199.162 265.019 217.855 261.975 236.473 263.728L235.473 263.171C271.843 272.381 309.889 274.593 347.042 269.656C354.82 268.622 363.75 266.4 367.037 259.1C369.813 252.938 367.32 245.713 367.891 238.951C368.713 229.205 375.848 221.223 383.627 215.557C391.406 209.892 400.231 205.675 407.238 199.036C420.949 186.05 425.601 165.946 427.645 146.926C429.898 125.972 429.608 103.816 420.191 85.0765Z" fill="url(#paint0_linear_434_814)"/>
<path d="M153.945 267.661C166.448 261.146 170.727 238.778 163.62 231.508C158.818 226.596 151.933 231.762 145.289 226.671C136.808 220.17 143.047 207.927 136.378 192.047C130.702 178.532 117.09 165.745 109.136 168.369C100.81 171.116 96.4233 191.494 103.535 203.759C108.159 211.735 115.237 212.127 116.774 219.545C118.556 228.152 109.947 232.077 109.9 240.421C109.817 255.408 137.406 276.279 153.945 267.661Z" fill="#BDD0FB"/>
<path d="M147.2 273.389C147.274 273.389 147.35 273.373 147.423 273.338C147.676 273.215 147.782 272.911 147.658 272.658C131.084 238.504 126.225 198.885 126.177 198.487C126.144 198.209 125.89 198.008 125.611 198.042C125.333 198.075 125.133 198.329 125.166 198.608C125.214 199.005 130.095 238.796 146.743 273.101C146.829 273.284 147.01 273.389 147.2 273.389Z" fill="#91B3FA"/>
<path d="M113.195 208.749C113.248 208.749 113.301 208.733 113.345 208.698C113.451 208.616 113.47 208.462 113.388 208.357C108.156 201.641 102.358 191.552 104.445 181.625C105.688 175.712 109.188 172.628 109.222 172.598C109.324 172.51 109.334 172.357 109.247 172.255C109.16 172.153 109.005 172.143 108.904 172.23C108.756 172.359 105.246 175.453 103.969 181.524C102.795 187.104 103.41 196.343 113.004 208.655C113.052 208.716 113.123 208.749 113.195 208.749Z" fill="#F0F0F0"/>
<path d="M155.073 264.679C155.15 264.679 155.226 264.641 155.274 264.574C163.314 252.84 166.055 243.773 163.423 237.626C161.082 232.161 155.172 231.144 155.113 231.134C154.979 231.113 154.855 231.203 154.834 231.335C154.813 231.467 154.903 231.592 155.035 231.614C155.091 231.624 160.747 232.603 162.979 237.824C165.538 243.808 162.811 252.714 154.874 264.298C154.798 264.409 154.826 264.56 154.936 264.636C154.977 264.664 155.025 264.679 155.073 264.679Z" fill="#F0F0F0"/>
<path d="M100.506 164.098H86.3625C84.6085 164.098 82.9864 165.035 82.1094 166.555L75.0374 178.803C74.1604 180.323 74.1604 182.195 75.0374 183.714L82.1094 195.962C82.9864 197.482 84.6085 198.418 86.3625 198.418H100.506C102.26 198.418 103.883 197.482 104.76 195.962L111.832 183.714C112.709 182.194 112.709 180.321 111.832 178.803L104.76 166.555C103.883 165.033 102.262 164.098 100.506 164.098Z" fill="#7D97F4"/>
<path d="M86.3624 196.068C85.4508 196.068 84.6002 195.576 84.1452 194.787L77.0732 182.537C76.6166 181.747 76.6166 180.766 77.0732 179.977L84.1452 167.728C84.6018 166.939 85.4508 166.448 86.3624 166.448H100.506C101.418 166.448 102.269 166.939 102.724 167.728L109.796 179.978C110.252 180.768 110.252 181.749 109.796 182.538L102.724 194.787C102.267 195.576 101.418 196.068 100.506 196.068H86.3624Z" fill="#91B3FA"/>
<path d="M131.917 183.402H117.773C116.019 183.402 114.397 184.338 113.52 185.858L106.448 198.106C105.571 199.626 105.571 201.499 106.448 203.017L113.52 215.265C114.397 216.785 116.019 217.722 117.773 217.722H131.917C133.671 217.722 135.293 216.785 136.17 215.265L143.242 203.017C144.119 201.497 144.119 199.625 143.242 198.106L136.17 185.858C135.293 184.337 133.671 183.402 131.917 183.402Z" fill="#7D97F4"/>
<path d="M117.773 215.371C116.861 215.371 116.011 214.88 115.556 214.09L108.484 201.84C108.027 201.051 108.027 200.07 108.484 199.28L115.556 187.032C116.012 186.242 116.861 185.751 117.773 185.751H131.917C132.828 185.751 133.679 186.242 134.134 187.032L141.206 199.282C141.663 200.071 141.663 201.052 141.206 201.842L134.134 214.09C133.677 214.88 132.828 215.371 131.917 215.371H117.773Z" fill="#91B3FA"/>
<path d="M134.534 145.448H120.39C118.636 145.448 117.014 146.384 116.137 147.904L109.065 160.152C108.188 161.672 108.188 163.545 109.065 165.063L116.137 177.311C117.014 178.831 118.636 179.767 120.39 179.767H134.534C136.288 179.767 137.91 178.831 138.787 177.311L145.859 165.063C146.736 163.543 146.736 161.67 145.859 160.152L138.787 147.904C137.91 146.384 136.288 145.448 134.534 145.448Z" fill="#7D97F4"/>
<path d="M120.39 177.418C119.479 177.418 118.628 176.927 118.173 176.137L111.101 163.888C110.644 163.098 110.644 162.117 111.101 161.327L118.173 149.079C118.63 148.29 119.479 147.798 120.39 147.798H134.534C135.446 147.798 136.296 148.29 136.751 149.079L143.823 161.329C144.28 162.119 144.28 163.1 143.823 163.889L136.751 176.137C136.295 176.927 135.446 177.418 134.534 177.418H120.39Z" fill="#91B3FA"/>
<path d="M415.309 149.059C411.91 167.194 387.354 271.807 274.217 264.118C274.217 264.118 270.698 190.675 413 147.237C414.244 146.857 415.53 147.874 415.309 149.059Z" fill="#91B3FA"/>
<path d="M402.61 166.862C400.864 169.591 399.004 172.225 397.104 174.836C396.158 176.145 395.18 177.428 394.211 178.718C393.218 179.991 392.247 181.28 391.232 182.535C387.213 187.586 383.009 192.491 378.629 197.234C369.861 206.708 360.432 215.597 350.252 223.557C347.733 225.582 345.107 227.466 342.511 229.386C339.847 231.214 337.219 233.097 334.474 234.807C331.781 236.597 328.972 238.199 326.199 239.859C324.788 240.647 323.362 241.412 321.944 242.188C321.232 242.569 320.532 242.976 319.808 243.337L317.635 244.416L315.462 245.494C314.737 245.853 314.018 246.221 313.273 246.537L308.841 248.512C308.47 248.674 308.104 248.847 307.729 249L306.6 249.445L304.342 250.335C302.835 250.925 301.34 251.547 299.799 252.041L295.204 253.612C293.661 254.099 292.097 254.522 290.546 254.981L288.213 255.655C287.428 255.856 286.639 256.031 285.851 256.22L281.123 257.335C280.772 257.417 280.419 257.2 280.337 256.848C280.254 256.497 280.472 256.145 280.823 256.062H280.826L280.859 256.054L285.549 254.972C286.33 254.789 287.115 254.62 287.892 254.425L290.206 253.767C291.747 253.321 293.299 252.909 294.832 252.434L299.395 250.897C300.926 250.414 302.413 249.804 303.91 249.227L306.155 248.355L307.278 247.92C307.65 247.769 308.015 247.6 308.382 247.441L312.794 245.502C313.535 245.192 314.251 244.828 314.973 244.475L317.137 243.415L319.302 242.355C320.022 242.001 320.72 241.6 321.43 241.224C322.843 240.459 324.262 239.706 325.67 238.929C328.434 237.291 331.237 235.712 333.924 233.944C336.662 232.258 339.286 230.397 341.947 228.592C344.542 226.691 347.165 224.83 349.682 222.825C359.858 214.947 369.299 206.134 378.087 196.731C382.477 192.023 386.694 187.152 390.727 182.132C391.746 180.886 392.72 179.605 393.718 178.341C394.69 177.058 395.673 175.784 396.622 174.483C398.528 171.892 400.402 169.266 402.143 166.571L402.146 166.566C402.229 166.437 402.4 166.401 402.529 166.483C402.654 166.562 402.692 166.734 402.61 166.862Z" fill="#BDD0FB"/>
<path d="M364.061 62.6471C372.478 84.2472 415.532 211.675 284.71 268.142C284.71 268.142 231.429 190.57 360.271 61.9943C361.399 60.8684 363.511 61.236 364.061 62.6471Z" fill="#BDD0FB"/>
<path d="M358.48 96.4097C357.408 103.642 356.081 110.821 354.634 117.978C353.181 125.135 351.584 132.263 349.837 139.353C346.338 153.533 342.277 167.581 337.456 181.378C332.625 195.164 327.053 208.721 320.289 221.699C316.9 228.181 313.22 234.521 309.117 240.591C305.039 246.674 300.506 252.467 295.489 257.826C295.242 258.09 294.828 258.103 294.564 257.857C294.301 257.61 294.288 257.196 294.533 256.932L294.535 256.931L294.538 256.928C299.518 251.651 304.037 245.932 308.11 239.912C312.208 233.905 315.894 227.616 319.295 221.182C326.082 208.296 331.697 194.804 336.574 181.071C341.442 167.329 345.559 153.32 349.113 139.176C350.888 132.103 352.515 124.993 353.996 117.85C355.471 110.709 356.829 103.536 357.927 96.3339V96.3289C357.95 96.1772 358.092 96.0734 358.244 96.0965C358.397 96.1179 358.503 96.258 358.48 96.4097Z" fill="#BDD0FB"/>
<path d="M322.953 201.535C329.164 195.67 332.409 186.811 331.457 178.321C330.506 169.832 325.378 161.912 318.022 157.568C313.987 155.185 309.05 153.551 306.818 149.428C305.016 146.102 305.514 142.056 306.002 138.304C308.38 119.996 309.218 100.796 302.358 83.6553C292.166 58.1895 264.171 41.0981 236.867 43.612C209.564 41.0997 181.567 58.1895 171.376 83.6553C164.517 100.796 165.353 119.996 167.733 138.304C168.221 142.056 168.719 146.102 166.917 149.428C164.685 153.549 159.748 155.185 155.711 157.568C148.355 161.912 143.229 169.833 142.277 178.321C141.326 186.811 144.57 195.67 150.782 201.535C152.81 203.449 155.229 205.205 156.118 207.847C157.359 211.532 155.193 215.376 154.034 219.087C150.141 231.559 158.37 245.232 169.608 251.895C180.141 258.139 192.667 259.687 204.912 260.813C210.244 262.435 215.681 263.978 221.245 263.883C227.143 263.78 233.313 261.53 236.703 256.703C236.76 256.621 236.811 256.535 236.867 256.453C236.923 256.535 236.975 256.621 237.032 256.703C240.422 261.53 246.593 263.782 252.49 263.883C258.054 263.978 263.489 262.435 268.823 260.813C281.068 259.687 293.593 258.139 304.127 251.895C315.367 245.232 323.594 231.559 319.7 219.087C318.542 215.376 316.377 211.532 317.617 207.847C318.505 205.206 320.927 203.449 322.953 201.535Z" fill="url(#paint1_linear_434_814)"/>
<path d="M306.353 241.465C290.336 241.923 269.286 249.702 259.676 236.888C250.065 224.075 253.726 184.72 253.726 184.72C253.726 184.72 241.927 183.491 235.804 183.736C229.682 183.492 217.882 184.72 217.882 184.72C217.882 184.72 221.543 224.075 211.932 236.888C202.322 249.702 181.272 241.923 165.256 241.465C152.582 241.102 148.143 264.842 149.982 270.806C150.454 272.337 151.871 273.376 153.474 273.376H320.749C322.351 273.376 323.769 272.337 324.24 270.806C326.083 264.842 319.026 241.102 306.353 241.465Z" fill="url(#paint2_linear_434_814)"/>
<path d="M306.353 241.465C298.057 241.702 288.412 243.903 279.705 244.19C271.746 250.757 256.643 260.398 237.474 259.308C216.355 258.108 201.222 248.987 194.656 244.211C185.272 244.394 174.439 241.729 165.259 241.466C152.585 241.104 148.146 264.844 149.986 270.808C150.457 272.339 151.875 273.378 153.477 273.378H320.752C322.354 273.378 323.772 272.339 324.244 270.808C326.083 264.842 319.026 241.102 306.353 241.465Z" fill="url(#paint3_linear_434_814)"/>
<path d="M196.907 93.721C195.959 95.292 195.443 97.0872 195.403 98.9203C195.136 111.187 194.312 161.652 198.611 171.571C203.946 183.88 217.658 197.315 234.916 199.781C252.174 202.247 273.284 178.545 275.752 167.159C277.054 161.147 276.909 112.377 276.847 99.3951C276.837 97.1845 276.13 95.0381 274.831 93.2495C269.974 86.5633 256.46 71.0807 236.398 72.7127C222.752 73.8205 208.382 74.709 196.907 93.721Z" fill="url(#paint4_linear_434_814)"/>
<path d="M274.154 135.981C274.154 135.981 274.154 113.793 286.482 126.119C298.809 138.446 274.154 155.704 274.154 155.704V135.981Z" fill="url(#paint5_linear_434_814)"/>
<path d="M197.689 135.981C197.689 135.981 197.689 113.793 185.362 126.119C173.035 138.446 197.689 155.704 197.689 155.704V135.981Z" fill="url(#paint6_linear_434_814)"/>
<path d="M192.766 116.592C192.795 117.355 203.322 109.288 221.487 105.925C243.643 101.822 251.371 89.6607 256.362 89.6607C258.824 89.6607 262.516 91.1872 262.106 101.873C261.695 112.558 273.184 125.151 282.211 112.939C291.238 100.727 274.415 69.053 235.847 69.8163C197.279 70.5795 191.534 85.2989 192.766 116.592Z" fill="url(#paint7_linear_434_814)"/>
<path d="M200.474 134.107C202.5 133.229 204.031 131.199 206.127 130.327C208.613 129.292 211.237 129.3 213.725 130.11C218.04 131.514 222.544 134.996 227.176 132.785C227.339 132.708 227.3 132.375 227.118 132.383C221.156 132.663 216.723 127.587 210.935 127.179C208.749 127.024 206.16 126.986 204.135 128.006C202.335 128.913 198.303 131.778 198.303 131.778C198.303 131.778 200.027 134.302 200.474 134.107Z" fill="url(#paint8_linear_434_814)"/>
<path d="M271.57 134.107C269.544 133.229 268.013 131.199 265.917 130.327C263.431 129.292 260.807 129.3 258.319 130.11C254.004 131.514 249.5 134.996 244.868 132.785C244.705 132.708 244.744 132.375 244.925 132.383C250.888 132.663 255.321 127.587 261.109 127.179C263.295 127.024 265.884 126.986 267.909 128.006C269.709 128.913 273.741 131.778 273.741 131.778C273.741 131.778 272.018 134.302 271.57 134.107Z" fill="url(#paint9_linear_434_814)"/>
<path d="M244.46 117.009C244.46 118.092 245.52 118.864 246.547 118.522C251.532 116.866 264.442 113.519 274.196 119.282C274.196 119.282 268.744 106.744 245.481 115.522C244.864 115.755 244.46 116.35 244.46 117.009Z" fill="url(#paint10_linear_434_814)"/>
<path d="M227.72 117.009C227.72 118.092 226.66 118.864 225.633 118.522C220.648 116.866 207.738 113.519 197.984 119.282C197.984 119.282 203.436 106.744 226.699 115.522C227.314 115.755 227.72 116.35 227.72 117.009Z" fill="url(#paint11_linear_434_814)"/>
<path d="M256.58 168.964C256.58 168.964 249.041 165.468 243.857 165.905C238.674 166.342 237.024 167.652 237.024 167.652C237.024 167.652 235.376 166.342 230.191 165.905C225.008 165.468 217.468 168.964 217.468 168.964C221.401 178.911 230.662 182.512 237.024 182.418C243.385 182.512 252.647 178.913 256.58 168.964Z" fill="url(#paint12_linear_434_814)"/>
<path d="M251.664 171.368C251.664 171.368 245.11 175.955 237.026 175.955C228.942 175.955 222.387 171.368 222.387 171.368C222.387 171.368 228.942 170.275 237.026 170.275C245.11 170.275 251.664 171.368 251.664 171.368Z" fill="white"/>
<path d="M179.029 179.661C178.521 179.661 178.008 179.61 177.491 179.5C177.314 179.462 177.2 179.289 177.238 179.112C177.276 178.936 177.448 178.824 177.626 178.86C180.966 179.569 185.591 177.393 187.241 172.647C188.46 169.144 187.972 164.764 185.868 160.313C184.658 157.751 183.053 155.34 181.5 153.009C180.695 151.8 179.863 150.551 179.093 149.29C175.349 143.167 173.269 137.106 172.908 131.27C172.483 124.403 174.571 117.861 178.638 113.325C183.282 108.144 190.12 105.743 196.194 104.08C200.604 102.872 205.147 101.888 209.54 100.935C215.007 99.7495 220.659 98.5246 226.09 96.8597C237.767 93.2808 246.232 88.215 251.969 81.3771C252.084 81.2386 252.292 81.2205 252.431 81.3359C252.569 81.4513 252.587 81.659 252.472 81.7975C246.651 88.7359 238.084 93.8677 226.282 97.4845C220.826 99.1577 215.16 100.386 209.681 101.573C205.296 102.524 200.762 103.506 196.369 104.71C190.387 106.348 183.659 108.706 179.128 113.762C175.176 118.17 173.148 124.536 173.564 131.231C173.918 136.957 175.967 142.918 179.655 148.949C180.42 150.198 181.247 151.443 182.049 152.646C183.613 154.997 185.232 157.428 186.463 160.035C188.641 164.64 189.137 169.197 187.863 172.863C186.638 176.378 183.062 179.661 179.029 179.661Z" fill="#7D97F4"/>
<path d="M175.943 106.37C175.936 106.37 175.931 106.37 175.924 106.368C175.835 106.358 175.769 106.278 175.779 106.187C176.175 102.679 178.377 99.2963 181.826 96.906C185.167 94.5882 189.186 93.4804 192.314 92.7732C198.106 91.4643 204.114 90.8346 209.923 90.2263C211.4 90.0713 212.877 89.9164 214.352 89.7515C221.475 88.952 229.029 87.8393 235.999 85.1341C241.33 83.0636 248.657 79.0875 253.29 71.9018C253.339 71.8259 253.44 71.8045 253.515 71.8523C253.591 71.9018 253.613 72.0023 253.565 72.0782C248.885 79.3381 241.495 83.3505 236.119 85.4375C229.114 88.1575 221.536 89.2735 214.392 90.0746C212.916 90.2395 211.439 90.3944 209.961 90.5494C204.161 91.156 198.162 91.7841 192.389 93.0897C189.29 93.7903 185.313 94.8866 182.016 97.1714C178.646 99.5073 176.493 102.806 176.109 106.22C176.096 106.307 176.025 106.37 175.943 106.37Z" fill="#7D97F4"/>
<path d="M295.491 234.256C295.352 234.256 295.225 234.169 295.179 234.03C295.123 233.859 295.217 233.674 295.389 233.618C297.622 232.891 298.755 230.323 298.72 228.162C298.682 225.747 297.543 223.454 296.48 221.493L296.119 220.831C295.072 218.92 293.989 216.944 293.574 214.763C292.332 208.243 297.337 202.711 299.548 200.634C301.361 198.929 303.387 197.422 305.347 195.965C307.518 194.351 309.765 192.681 311.704 190.751C316.024 186.448 317.881 181.308 316.666 176.999C315.512 172.906 312.078 170.323 308.443 167.588C306.76 166.322 305.019 165.013 303.539 163.546C299.175 159.222 296.544 152.714 296.318 145.686C296.129 139.796 297.469 133.57 300.417 126.65C300.487 126.483 300.68 126.406 300.845 126.476C301.012 126.547 301.089 126.74 301.018 126.905C298.109 133.736 296.785 139.872 296.971 145.665C297.192 152.526 299.752 158.874 303.999 163.081C305.448 164.517 307.17 165.813 308.835 167.065C312.398 169.746 316.082 172.517 317.295 176.823C318.575 181.364 316.658 186.745 312.165 191.216C310.192 193.179 307.927 194.864 305.738 196.493C303.793 197.938 301.782 199.433 299.996 201.112C297.865 203.115 293.036 208.441 294.218 214.641C294.614 216.721 295.672 218.651 296.694 220.518L297.057 221.182C298.158 223.211 299.335 225.59 299.376 228.152C299.414 230.554 298.127 233.415 295.591 234.24C295.558 234.251 295.524 234.256 295.491 234.256Z" fill="#7D97F4"/>
<path d="M192.774 100.788C191.6 100.788 190.647 99.8354 190.647 98.6617V85.5134C190.647 81.8488 193.628 78.8667 197.292 78.8667H206.392C207.566 78.8667 208.518 79.8195 208.518 80.9932C208.518 82.167 207.566 83.1198 206.392 83.1198H197.292C195.973 83.1198 194.9 84.1929 194.9 85.5117V98.66C194.9 99.8354 193.947 100.788 192.774 100.788Z" fill="url(#paint13_linear_434_814)"/>
<path d="M280.989 100.788C279.816 100.788 278.863 99.8355 278.863 98.6617V85.5134C278.863 84.1947 277.79 83.1215 276.471 83.1215H267.371C266.197 83.1215 265.245 82.1687 265.245 80.9949C265.245 79.8212 266.197 78.8684 267.371 78.8684H276.471C280.135 78.8684 283.116 81.8505 283.116 85.5151V98.6634C283.116 99.8355 282.165 100.788 280.989 100.788Z" fill="url(#paint14_linear_434_814)"/>
<path d="M206.392 204.831H197.292C193.628 204.831 190.647 201.85 190.647 198.186V185.037C190.647 183.863 191.6 182.911 192.774 182.911C193.949 182.911 194.9 183.863 194.9 185.037V198.186C194.9 199.504 195.973 200.578 197.292 200.578H206.392C207.566 200.578 208.518 201.53 208.518 202.704C208.518 203.879 207.566 204.831 206.392 204.831Z" fill="url(#paint15_linear_434_814)"/>
<path d="M276.471 204.831H267.371C266.197 204.831 265.245 203.878 265.245 202.704C265.245 201.53 266.197 200.578 267.371 200.578H276.471C277.79 200.578 278.863 199.504 278.863 198.186V185.037C278.863 183.863 279.816 182.911 280.989 182.911C282.163 182.911 283.116 183.863 283.116 185.037V198.186C283.116 201.85 280.135 204.831 276.471 204.831Z" fill="url(#paint16_linear_434_814)"/>
<path d="M274.281 198.232H199.356C198.125 198.232 197.122 197.23 197.122 195.998V87.3729C197.122 86.1414 198.125 85.1392 199.356 85.1392H274.281C275.513 85.1392 276.515 86.1414 276.515 87.3729V195.998C276.515 197.23 275.514 198.232 274.281 198.232ZM199.358 85.7936C198.487 85.7936 197.778 86.5025 197.778 87.3729V195.998C197.778 196.869 198.487 197.577 199.358 197.577H274.283C275.153 197.577 275.862 196.869 275.862 195.998V87.3729C275.862 86.5025 275.153 85.7936 274.283 85.7936H199.358Z" fill="url(#paint17_linear_434_814)"/>
<path d="M263.862 170.203C264.884 169.18 264.884 167.523 263.862 166.501C262.84 165.478 261.182 165.478 260.16 166.501C259.138 167.523 259.138 169.18 260.16 170.203C261.182 171.225 262.84 171.225 263.862 170.203Z" fill="#91B3FA"/>
<path d="M262.014 168.678C261.911 168.678 261.811 168.63 261.748 168.541C261.643 168.394 261.676 168.19 261.824 168.084L289.634 148.126C289.69 148.087 289.756 148.065 289.825 148.065H383.726C383.908 148.065 384.053 148.212 384.053 148.392C384.053 148.573 383.906 148.718 383.726 148.718H289.931L262.206 168.615C262.145 168.658 262.079 168.678 262.014 168.678Z" fill="#91B3FA"/>
<path d="M202.406 139.817C203.814 139.487 204.687 138.078 204.357 136.671C204.027 135.263 202.619 134.389 201.211 134.719C199.804 135.049 198.93 136.458 199.26 137.865C199.59 139.273 200.998 140.147 202.406 139.817Z" fill="#91B3FA"/>
<path d="M201.811 137.596C201.745 137.596 201.679 137.576 201.62 137.535L173.896 117.637H80.1001C79.9187 117.637 79.7737 117.491 79.7737 117.311C79.7737 117.13 79.9204 116.985 80.1001 116.985H174.001C174.069 116.985 174.136 117.006 174.192 117.046L202.002 137.004C202.149 137.109 202.182 137.314 202.078 137.46C202.014 137.548 201.913 137.596 201.811 137.596Z" fill="#91B3FA"/>
<path d="M404.673 127.158H345.453C345.272 127.158 345.127 127.011 345.127 126.831V90.1853C345.127 90.004 345.273 89.8589 345.453 89.8589H404.673C404.855 89.8589 405 90.0056 405 90.1853V126.829C405 127.011 404.853 127.158 404.673 127.158ZM345.78 126.503H404.345V90.5133H345.78V126.503Z" fill="white"/>
<path d="M375.363 118.815C375.276 118.815 375.19 118.815 375.104 118.813C367.66 118.91 358.413 114.575 354.483 104.636C354.261 104.072 354.516 103.431 355.067 103.175C355.387 103.027 362.943 99.5585 368.367 100.014C372.086 100.327 374.132 101.087 375.102 101.576C376.075 101.087 378.119 100.327 381.838 100.014C387.26 99.5585 394.82 103.027 395.138 103.175C395.689 103.431 395.944 104.07 395.722 104.636C391.84 114.459 382.753 118.815 375.363 118.815ZM375.104 116.523C375.109 116.523 375.116 116.523 375.121 116.523C379.909 116.587 388.915 114.174 393.16 104.817C390.984 103.92 385.77 101.982 382.033 102.298C377.392 102.689 375.813 103.805 375.798 103.817C375.366 104.159 374.809 104.163 374.392 103.802C374.39 103.802 372.809 102.689 368.176 102.298C364.435 101.982 359.223 103.92 357.048 104.817C361.293 114.174 370.289 116.594 375.088 116.523C375.093 116.523 375.098 116.523 375.104 116.523Z" fill="white"/>
<path d="M389.743 106.619C389.743 106.619 383.188 111.207 375.104 111.207C367.02 111.207 360.466 106.619 360.466 106.619C360.466 106.619 367.02 105.526 375.104 105.526C383.188 105.526 389.743 106.619 389.743 106.619Z" fill="white"/>
<path d="M342.264 154.517C342.258 155.434 341.509 156.174 340.593 156.167C339.676 156.161 338.936 155.412 338.943 154.496C338.949 153.579 339.698 152.839 340.614 152.846C341.532 152.851 342.271 153.599 342.264 154.517Z" fill="url(#paint18_linear_434_814)"/>
<path d="M342.209 154.517C342.202 155.404 341.478 156.118 340.593 156.113C339.706 156.106 338.992 155.384 338.997 154.497C339.004 153.61 339.728 152.896 340.613 152.901C341.501 152.906 342.215 153.63 342.209 154.517Z" fill="url(#paint19_linear_434_814)"/>
<path d="M342.265 164.586C342.258 165.503 341.51 166.243 340.593 166.236C339.677 166.23 338.937 165.481 338.943 164.565C338.95 163.648 339.698 162.908 340.615 162.915C341.533 162.92 342.271 163.668 342.265 164.586Z" fill="url(#paint20_linear_434_814)"/>
<path d="M342.209 164.586C342.202 165.473 341.478 166.187 340.593 166.182C339.706 166.175 338.992 165.453 338.997 164.566C339.004 163.679 339.728 162.965 340.613 162.97C341.501 162.975 342.215 163.699 342.209 164.586Z" fill="url(#paint21_linear_434_814)"/>
<path d="M340.603 176.305C341.521 176.305 342.265 175.561 342.265 174.644C342.265 173.726 341.521 172.982 340.603 172.982C339.686 172.982 338.942 173.726 338.942 174.644C338.942 175.561 339.686 176.305 340.603 176.305Z" fill="url(#paint22_linear_434_814)"/>
<path d="M342.209 174.653C342.202 175.54 341.478 176.254 340.593 176.249C339.706 176.242 338.992 175.52 338.997 174.633C339.004 173.746 339.728 173.033 340.613 173.038C341.501 173.044 342.215 173.768 342.209 174.653Z" fill="url(#paint23_linear_434_814)"/>
<path d="M344.82 154.43L344.828 154.713C344.849 155.48 345.327 156.087 345.911 156.09L390.397 156.157C391.001 156.161 391.492 155.519 391.49 154.728C391.489 153.952 391.015 153.32 390.424 153.304L345.929 152.954C345.304 152.936 344.798 153.612 344.82 154.43Z" fill="url(#paint24_linear_434_814)"/>
<path d="M344.82 164.451L344.828 164.735C344.849 165.501 345.327 166.108 345.911 166.111L390.397 166.179C391.001 166.182 391.492 165.541 391.49 164.75C391.489 163.973 391.015 163.342 390.424 163.325L345.929 162.974C345.304 162.956 344.798 163.632 344.82 164.451Z" fill="url(#paint25_linear_434_814)"/>
<path d="M344.82 174.471L344.828 174.754C344.849 175.521 345.327 176.127 345.911 176.131L390.397 176.198C391.001 176.201 391.492 175.56 391.49 174.769C391.489 173.992 391.015 173.361 390.424 173.345L345.929 172.993C345.304 172.977 344.798 173.651 344.82 174.471Z" fill="url(#paint26_linear_434_814)"/>
<path d="M122.674 125.084C122.68 126 123.429 126.74 124.345 126.734C125.262 126.727 126.002 125.979 125.995 125.062C125.989 124.146 125.24 123.406 124.324 123.412C123.406 123.417 122.667 124.166 122.674 125.084Z" fill="url(#paint27_linear_434_814)"/>
<path d="M122.728 125.083C122.734 125.97 123.458 126.684 124.343 126.679C125.23 126.672 125.944 125.95 125.939 125.064C125.932 124.177 125.209 123.463 124.323 123.468C123.436 123.473 122.723 124.196 122.728 125.083Z" fill="#91B3FA"/>
<path d="M122.674 135.153C122.68 136.069 123.429 136.809 124.345 136.803C125.262 136.796 126.002 136.048 125.995 135.131C125.989 134.215 125.24 133.474 124.324 133.481C123.406 133.486 122.667 134.234 122.674 135.153Z" fill="url(#paint28_linear_434_814)"/>
<path d="M122.728 135.15C122.734 136.037 123.458 136.751 124.343 136.746C125.23 136.74 125.944 136.018 125.939 135.131C125.932 134.244 125.209 133.53 124.323 133.535C123.436 133.542 122.723 134.265 122.728 135.15Z" fill="#91B3FA"/>
<path d="M122.674 145.222C122.68 146.138 123.429 146.878 124.345 146.872C125.262 146.865 126.002 146.117 125.995 145.2C125.989 144.284 125.24 143.543 124.324 143.55C123.406 143.555 122.667 144.303 122.674 145.222Z" fill="url(#paint29_linear_434_814)"/>
<path d="M122.728 145.22C122.734 146.106 123.458 146.82 124.343 146.815C125.23 146.809 125.944 146.087 125.939 145.2C125.932 144.313 125.209 143.599 124.323 143.604C123.436 143.609 122.723 144.333 122.728 145.22Z" fill="#91B3FA"/>
<path d="M120.118 124.996L120.11 125.279C120.089 126.046 119.611 126.652 119.027 126.656L74.5412 126.723C73.9378 126.727 73.4466 126.085 73.4482 125.294C73.4499 124.518 73.923 123.886 74.5148 123.87L119.009 123.52C119.634 123.502 120.14 124.178 120.118 124.996Z" fill="#91B3FA"/>
<path d="M120.118 135.016L120.11 135.299C120.089 136.066 119.611 136.673 119.027 136.676L74.5412 136.744C73.9378 136.747 73.4466 136.106 73.4482 135.314C73.4499 134.538 73.923 133.906 74.5148 133.89L119.009 133.539C119.634 133.522 120.14 134.198 120.118 135.016Z" fill="#91B3FA"/>
<path d="M120.118 145.037L120.11 145.321C120.089 146.087 119.611 146.694 119.027 146.697L74.5412 146.765C73.9378 146.768 73.4466 146.127 73.4482 145.335C73.4499 144.559 73.923 143.928 74.5148 143.911L119.009 143.56C119.634 143.542 120.14 144.218 120.118 145.037Z" fill="#91B3FA"/>
<path d="M150.695 112.555H91.4746C91.2933 112.555 91.1482 112.408 91.1482 112.229V75.5827C91.1482 75.4014 91.2949 75.2563 91.4746 75.2563H150.695C150.876 75.2563 151.021 75.4031 151.021 75.5827V112.227C151.021 112.408 150.874 112.555 150.695 112.555ZM91.801 111.901H150.367V75.9108H91.801V111.901Z" fill="white"/>
<path d="M119.667 107.102C107.712 107.102 98.2529 96.2038 97.8572 95.7406C97.4913 95.312 97.4913 94.6806 97.8572 94.252C98.2545 93.7888 107.712 82.8906 119.667 82.8906C131.621 82.8906 141.08 93.7888 141.476 94.252C141.842 94.6806 141.842 95.312 141.476 95.7406C141.079 96.2038 131.621 107.102 119.667 107.102ZM100.284 94.9971C101.227 95.9779 103.09 97.7896 105.575 99.5815C108.886 101.967 114.017 104.812 119.667 104.812C125.316 104.812 130.448 101.967 133.758 99.5815C136.244 97.7896 138.107 95.9779 139.05 94.9971C138.107 94.0163 136.244 92.2046 133.758 90.4127C130.448 88.0273 125.316 85.182 119.667 85.182C114.017 85.182 108.886 88.0257 105.575 90.4127C103.091 92.2029 101.227 94.0146 100.284 94.9971Z" fill="white"/>
<path d="M119.667 104.812C114.255 104.812 109.852 100.409 109.852 94.9972C109.852 89.5852 114.255 85.1821 119.667 85.1821C125.079 85.1821 129.482 89.5852 129.482 94.9972C129.482 100.409 125.079 104.812 119.667 104.812ZM119.667 87.4719C115.517 87.4719 112.141 90.848 112.141 94.9972C112.141 99.1464 115.517 102.523 119.667 102.523C123.816 102.523 127.192 99.1464 127.192 94.9972C127.192 90.8463 123.816 87.4719 119.667 87.4719Z" fill="white"/>
<path d="M119.667 99.7399C122.287 99.7399 124.411 97.6158 124.411 94.9956C124.411 92.3753 122.287 90.2512 119.667 90.2512C117.046 90.2512 114.922 92.3753 114.922 94.9956C114.922 97.6158 117.046 99.7399 119.667 99.7399Z" fill="white"/>
<path d="M115.109 195.507C115.109 195.507 112.165 199.434 108.693 200.507C107.041 201.018 104.102 202.361 103.701 205.591C103.495 207.259 102.26 208.594 100.599 208.848C96.4611 209.483 90.0864 211.631 89.066 218.813C88.2879 224.296 91.0821 226.375 94.0164 227.095C96.171 227.625 97.6019 229.72 97.1667 231.894C96.7479 233.981 97.3727 236.393 100.986 238.298C109.085 242.571 117.174 228.173 117.174 228.173L118.831 203.032L115.109 195.507Z" fill="url(#paint30_linear_434_814)"/>
<path d="M133.644 190.603C133.644 190.603 128.869 203.624 120.73 207.693C120.73 207.693 123.438 212.112 124.853 212.381C124.853 212.381 133.547 201.254 134.434 192.138L133.644 190.603Z" fill="url(#paint31_linear_434_814)"/>
<path d="M100.914 268.926L100.673 270.9C100.627 271.275 100.332 271.571 99.9576 271.614C99.3246 271.687 98.3091 271.761 97.3151 271.655C96.8782 271.609 96.5963 271.168 96.7282 270.749C96.9705 269.987 97.414 268.842 98.0536 268.169H100.244C100.648 268.169 100.963 268.523 100.914 268.926Z" fill="url(#paint32_linear_434_814)"/>
<path d="M118.071 245.794L118.44 247.968C118.44 247.968 117.202 260.51 116.982 265.526C116.947 266.313 117.151 267.091 117.563 267.76L119.716 271.256L114.245 268.027L114.136 267.359L115.031 266.128L113.858 252.078C113.788 251.252 113.958 250.425 114.349 249.694L115.481 247.568L118.071 245.794Z" fill="url(#paint33_linear_434_814)"/>
<path d="M120.077 271.763H118.331C118.005 271.763 117.697 271.613 117.497 271.354C116.953 270.647 115.826 269.267 115.287 269.231C114.561 269.183 114.654 271.763 114.654 271.763H114.247L113.731 268.556C113.6 267.749 114.003 266.951 114.726 266.572C114.726 266.572 114.893 267.798 115.793 268.342C116.693 268.884 119.454 270.83 119.454 270.83C119.454 270.83 119.792 270.782 120.163 270.848C120.714 270.947 120.636 271.763 120.077 271.763Z" fill="url(#paint34_linear_434_814)"/>
<path d="M110.577 246.826C110.577 246.826 103.324 260.584 102.172 263.727C101.019 266.869 100.615 269.488 100.599 269.737C100.574 270.124 100.093 270.497 98.7625 270.497C98.0767 270.497 97.7404 270.222 97.5755 269.956C97.4354 269.729 97.4272 269.445 97.5459 269.206C97.9662 268.357 99.2966 265.644 99.7895 264.412C100.378 262.943 101.644 256.284 102.34 253.967C103.034 251.651 103.82 249.141 106.843 246.826C106.845 246.826 108.92 244.794 110.577 246.826Z" fill="url(#paint35_linear_434_814)"/>
<path d="M115.158 224.281C117.029 216.354 112.29 211.868 112.29 211.868C115.28 208.998 120.73 207.691 120.73 207.691C120.73 207.691 125.929 211.492 125.313 214.468C124.952 216.212 121.658 224.914 121.658 224.914C121.658 224.914 118.612 226.357 115.158 224.281Z" fill="#FF64AE"/>
<path d="M111.011 228.208C111.772 225.914 115.158 224.283 115.158 224.283C118.612 226.357 121.657 224.916 121.657 224.916C121.657 224.916 122.339 227.527 121.868 229.952C121.396 232.379 118.439 247.969 118.439 247.969C113.779 248.913 106.613 247.019 106.613 247.019C109.581 241.749 110.249 230.501 111.011 228.208Z" fill="url(#paint36_linear_434_814)"/>
<path d="M117.331 202.454L115.809 209.286C115.664 209.888 116.212 209.789 116.822 209.675C117.817 209.488 119.103 209.1 119.532 208.325C119.576 208.246 119.598 208.157 119.609 208.068L120.262 203.331C120.313 202.955 120.11 202.59 119.764 202.435L118.503 201.877C118.017 201.659 117.455 201.938 117.331 202.454Z" fill="url(#paint37_linear_434_814)"/>
<path d="M112.29 211.87C112.29 211.87 101.672 219.466 110.932 227.448C110.932 227.448 111.284 227.847 111.98 228.055C112.331 228.16 113.368 228.945 113.894 229.354C114.064 229.486 114.308 229.441 114.421 229.26C114.51 229.118 114.52 228.94 114.449 228.788L113.136 226.009C112.771 225.668 112.212 225.645 111.818 225.951C111.568 226.147 111.2 226.065 111.06 225.78C110.345 224.323 108.993 220.035 114.525 215.19C114.733 215.009 114.786 214.707 114.659 214.461C114.268 213.713 113.378 212.231 112.29 211.87Z" fill="url(#paint38_linear_434_814)"/>
<path d="M119.115 195.947C119.115 195.947 120.917 196.707 122.141 199.312C123.366 201.914 122.451 203.116 121.302 203.283C120.153 203.448 118.436 203.423 116.617 201.741C114.801 200.058 116.774 195.045 119.115 195.947Z" fill="url(#paint39_linear_434_814)"/>
<path d="M117.84 200.35C117.84 200.35 116.48 196.542 119.858 196.496L120.653 197.052C120.653 197.052 121.892 194.94 119.858 193.931C117.824 192.924 115.445 193.756 114.58 196.496C113.714 199.236 113.566 201.071 115.007 202.381C116.446 203.692 117.039 202.206 117.039 202.206C117.039 202.206 116.254 200.98 116.574 200.324C116.894 199.668 117.629 200.459 117.629 200.459L117.84 200.35Z" fill="url(#paint40_linear_434_814)"/>
<path d="M117.461 200.774C117.461 200.774 116.774 198.812 115.857 199.594C114.94 200.375 116.602 201.405 117.253 201.74L117.461 200.774Z" fill="url(#paint41_linear_434_814)"/>
<path d="M134.103 192.972C134.175 193.204 133.331 193.557 132.835 192.609C132.817 192.156 132.541 190.209 132.813 189.84C134.259 187.87 137.06 185.4 137.06 185.4C137.533 185.867 137.144 186.327 137.144 186.327L135.784 187.743C136.068 188.257 136.415 188.691 136.577 189.312C136.701 189.782 136.625 190.286 136.387 190.713C136.148 191.143 135.824 191.702 135.515 192.139C134.933 192.967 134.103 192.972 134.103 192.972Z" fill="url(#paint42_linear_434_814)"/>
<path d="M134.828 192.01L134.506 191.953C134.544 191.737 134.892 189.834 135.176 189.373C135.278 189.206 135.319 189.07 135.294 188.979C135.283 188.938 135.253 188.898 135.207 188.862L134.091 189.808L133.717 190.814L133.41 190.7L133.814 189.614L135.169 188.465L135.266 188.514C135.453 188.61 135.566 188.733 135.609 188.89C135.662 189.076 135.611 189.289 135.454 189.543C135.24 189.891 134.928 191.442 134.828 192.01Z" fill="url(#paint43_linear_434_814)"/>
<path opacity="0.71" d="M94.9924 223.525C93.5549 223.525 92.0795 222.509 91.5338 221.027C90.9602 219.468 91.3327 217.557 92.5064 216.041C93.4494 214.822 94.8967 213.827 96.8073 213.082C97.864 212.669 98.9751 212.356 100.05 212.055C100.638 211.89 101.247 211.718 101.839 211.534C103.238 211.095 104.783 210.474 105.635 209.185C106.158 208.392 106.357 207.431 106.548 206.501C106.591 206.291 106.636 206.082 106.682 205.876C106.898 204.918 107.31 203.567 108.391 202.884C108.881 202.574 109.456 202.439 110.012 202.309C110.191 202.266 110.378 202.223 110.557 202.174C111.484 201.921 112.084 201.506 112.343 200.942C112.353 200.921 112.377 200.912 112.397 200.922C112.418 200.932 112.427 200.955 112.417 200.977C112.148 201.564 111.53 201.994 110.579 202.253C110.397 202.302 110.211 202.347 110.031 202.388C109.483 202.518 108.914 202.652 108.436 202.953C107.381 203.619 106.975 204.951 106.763 205.894C106.716 206.1 106.674 206.31 106.629 206.519C106.436 207.457 106.235 208.425 105.703 209.231C104.837 210.543 103.276 211.171 101.863 211.613C101.27 211.799 100.661 211.971 100.071 212.135C98.9982 212.437 97.8904 212.749 96.837 213.159C94.9396 213.899 93.5054 214.887 92.5707 216.093C91.4135 217.589 91.0459 219.469 91.6097 221.003C92.2377 222.709 94.1236 223.784 95.7259 223.35C95.7474 223.343 95.7704 223.357 95.7754 223.378C95.782 223.399 95.7688 223.423 95.7474 223.428C95.5017 223.493 95.2479 223.525 94.9924 223.525Z" fill="white"/>
<path opacity="0.71" d="M94.6511 222.115C94.6495 222.115 94.6462 222.115 94.6445 222.115C93.9489 222.003 93.334 221.392 93.1494 220.632C92.9878 219.967 93.1213 219.211 93.5252 218.502C94.3445 217.06 96.0408 216.107 98.563 215.672C99.0213 215.592 99.4927 215.526 99.9494 215.462C101.436 215.254 102.973 215.038 104.306 214.333C105.737 213.575 106.858 212.261 107.382 210.729C107.643 209.969 107.76 209.157 107.874 208.37C107.941 207.909 108.009 207.431 108.106 206.966C108.436 205.396 109.084 204.308 110.031 203.73C110.051 203.718 110.076 203.725 110.088 203.743C110.099 203.763 110.092 203.788 110.074 203.799C109.146 204.365 108.512 205.436 108.185 206.982C108.088 207.444 108.019 207.92 107.953 208.38C107.839 209.17 107.72 209.986 107.457 210.754C106.926 212.305 105.79 213.634 104.341 214.402C102.996 215.116 101.451 215.332 99.9576 215.541C99.5026 215.606 99.0312 215.672 98.5729 215.751C96.0754 216.183 94.3989 217.121 93.5912 218.542C93.1988 219.232 93.0686 219.967 93.2236 220.612C93.3999 221.342 93.9868 221.928 94.6511 222.035C94.6742 222.038 94.6891 222.059 94.6858 222.081C94.6874 222.101 94.6709 222.115 94.6511 222.115Z" fill="white"/>
<path d="M340.537 208.922C340.537 208.922 332.316 218.083 337.593 218.083C337.919 218.083 342.174 218.083 342.174 218.083L340.537 208.922Z" fill="#FF64AE"/>
<path d="M344.342 267.086C344.342 267.086 344.621 268.665 344.757 270.229C344.81 270.841 344.34 271.372 343.727 271.396C341.645 271.484 337.191 271.652 335.592 271.581C335.351 271.57 335.195 271.324 335.284 271.101C335.358 270.913 335.501 270.763 335.684 270.679L343.041 267.298L344.342 267.086Z" fill="url(#paint44_linear_434_814)"/>
<path d="M344.571 266.157L344.347 268.047C344.347 268.047 343.058 268.647 342.177 267.971L342.712 265.866L344.571 266.157Z" fill="url(#paint45_linear_434_814)"/>
<path d="M344.403 230.638C344.5 231.131 344.923 255.26 342.344 266.072C342.301 266.249 342.392 266.43 342.56 266.499C342.956 266.661 343.731 266.895 344.66 266.926C344.949 266.936 345.206 266.748 345.287 266.473C346.024 263.964 349.556 251.394 350.018 239.386C350.532 225.969 350.018 238.93 350.018 238.93L349.716 230.636L344.403 230.638Z" fill="url(#paint46_linear_434_814)"/>
<path d="M352.806 267.91C352.806 267.91 353.249 268.708 353.679 270.826C353.757 271.209 353.49 271.575 353.101 271.612C352.413 271.68 351.355 271.767 350.506 271.761C350.115 271.758 349.81 271.418 349.856 271.031C349.95 270.257 350.242 268.988 351.147 267.999L352.806 267.91Z" fill="url(#paint47_linear_434_814)"/>
<path d="M353.196 265.48L352.672 268.337C352.672 268.337 352.155 268.723 351.129 268.442L351.38 265.368L353.196 265.48Z" fill="url(#paint48_linear_434_814)"/>
<path d="M354.61 231.378C356.72 244.108 354.152 262.843 353.287 266.509C353.234 266.733 353.053 266.904 352.825 266.942C352.439 267.007 351.803 267.059 351.175 266.876C350.959 266.814 350.807 266.619 350.797 266.393C350.682 263.429 350.89 245.23 348.925 238.038C348.826 237.673 348.603 237.355 348.295 237.136L344.481 234.424L344.189 230.041L354.61 231.378Z" fill="url(#paint49_linear_434_814)"/>
<path d="M340.538 208.922C346.754 206.959 354.467 208.917 354.467 208.917C356.351 219.913 354.797 232.594 354.797 232.594C349.903 233.879 344.382 231.81 344.382 231.81C343.567 227.212 338.678 209.509 340.538 208.922Z" fill="#FF64AE"/>
<path d="M352.042 215.036L354.467 208.916C354.467 208.916 360.372 212.928 361.343 218.014C360.227 218.096 358.198 218.386 356.21 219.39C355.773 216.988 352.042 215.036 352.042 215.036Z" fill="#FF64AE"/>
<path d="M346.881 220.796C346.881 220.796 353.511 224.543 355.746 221.344C356.211 220.679 356.322 220.02 356.208 219.39C358.194 218.386 360.225 218.096 361.341 218.014C361.635 219.547 361.48 221.179 360.578 222.827C356.66 229.995 346.004 222.432 346.004 222.432L346.881 220.796Z" fill="url(#paint50_linear_434_814)"/>
<path d="M347.679 225.535L344.06 212.9C344.019 212.756 343.897 212.653 343.749 212.634C343.093 212.559 341.193 212.343 339.001 212.158C336.358 211.934 333.292 211.754 331.458 211.907C331.197 211.929 331.039 212.204 331.156 212.44C332.198 214.548 336.487 223.129 338.633 225.939C338.704 226.032 338.815 226.086 338.932 226.086L347.326 226.009C347.57 226.005 347.745 225.771 347.679 225.535Z" fill="url(#paint51_linear_434_814)"/>
<path d="M338.625 211.063L336.002 210.627C335.862 210.604 335.748 210.737 335.793 210.871L336.053 211.657C336.077 211.726 336.136 211.776 336.207 211.784L338.731 212.122C338.861 212.14 338.97 212.021 338.938 211.893L338.777 211.205C338.76 211.133 338.699 211.077 338.625 211.063Z" fill="#7D97F4"/>
<path d="M340.589 213.284L340.373 212.158C340.351 212.044 340.257 211.96 340.144 211.949L334.845 211.411C334.667 211.393 334.524 211.556 334.567 211.731L334.903 213.134C334.929 213.246 335.028 213.327 335.144 213.333L340.322 213.594C340.49 213.602 340.622 213.45 340.589 213.284Z" fill="#7D97F4"/>
<path d="M346.803 222.484C346.803 222.484 347.308 220.412 347.103 219.677C346.9 218.942 346.506 217.997 345.193 218.206C343.88 218.416 342.331 218.97 342.331 218.97C342.331 218.97 342.408 219.927 343.407 219.619L342.789 220.097C342.789 220.097 342.878 220.864 343.72 220.455L343.145 221.09C343.145 221.09 343.508 221.719 344.128 221.315C344.748 220.91 345.044 222.733 346.803 222.484Z" fill="url(#paint52_linear_434_814)"/>
<path d="M334.605 219.969C334.605 219.969 332.595 219.252 332.092 218.678C331.59 218.104 331.016 217.257 331.913 216.275C332.81 215.292 334.122 214.301 334.122 214.301C334.122 214.301 334.88 214.893 334.074 215.557L334.814 215.304C334.814 215.304 335.406 215.798 334.601 216.278L335.449 216.146C335.449 216.146 335.777 216.794 335.098 217.091C334.418 217.386 335.778 218.635 334.605 219.969Z" fill="url(#paint53_linear_434_814)"/>
<path d="M347.899 203.358L349.91 209.176C349.943 209.271 349.904 209.379 349.815 209.428C349.266 209.731 347.291 210.607 344.911 209.098C344.663 208.942 344.494 208.685 344.456 208.393L343.804 203.358H347.899Z" fill="url(#paint54_linear_434_814)"/>
<path d="M343.523 197.973C343.523 197.973 341.314 202.13 341.597 203.81C341.881 205.49 344.617 205.37 347.007 204.005L348.677 199.516L343.523 197.973Z" fill="url(#paint55_linear_434_814)"/>
<path d="M346.902 201.801C346.805 201.758 346.768 201.639 346.828 201.55C347.004 201.28 347.337 200.728 347.443 200.246C347.443 200.246 347.84 199.992 346.432 199.654C345.024 199.318 342.926 198.794 342.484 197.597C342.054 196.428 343.185 193.491 344.988 195.832C345.057 195.921 345.191 195.922 345.26 195.833C345.555 195.449 346.333 194.65 347.411 195.134C348.422 195.588 348.536 196.328 348.521 196.7C348.517 196.811 348.615 196.895 348.722 196.875C349.233 196.778 350.458 196.694 351.03 197.952C351.501 198.987 351.194 199.572 350.916 199.859C350.825 199.951 350.865 200.104 350.988 200.142C351.325 200.245 351.757 200.53 351.714 201.316C351.654 202.402 350.44 202.307 350.093 202.257C350.037 202.249 349.98 202.269 349.942 202.312C349.645 202.64 348.308 204.034 346.862 204.203C346.737 204.217 346.64 204.094 346.681 203.973L347.307 202.153C347.337 202.069 347.296 201.975 347.215 201.941L346.902 201.801Z" fill="url(#paint56_linear_434_814)"/>
<path d="M346.651 202.058C346.651 202.058 348.224 200.978 348.339 201.888C348.455 202.796 346.923 203.204 346.165 202.866L346.651 202.058Z" fill="url(#paint57_linear_434_814)"/>
<defs>
<linearGradient id="paint0_linear_434_814" x1="188.512" y1="5.08274" x2="301.51" y2="325.36" gradientUnits="userSpaceOnUse">
<stop stop-color="#DAE3FE"/>
<stop offset="1" stop-color="#E9EFFD"/>
</linearGradient>
<linearGradient id="paint1_linear_434_814" x1="273.5" y1="21.6619" x2="210.743" y2="295.186" gradientUnits="userSpaceOnUse">
<stop stop-color="#09005D"/>
<stop offset="1" stop-color="#1A0F91"/>
</linearGradient>
<linearGradient id="paint2_linear_434_814" x1="237.534" y1="149.538" x2="237.04" y2="272.692" gradientUnits="userSpaceOnUse">
<stop stop-color="#FF928E"/>
<stop offset="1" stop-color="#FEB3B1"/>
</linearGradient>
<linearGradient id="paint3_linear_434_814" x1="236.218" y1="253.942" x2="240.798" y2="329.849" gradientUnits="userSpaceOnUse">
<stop stop-color="#4042E2"/>
<stop offset="1" stop-color="#4F52FF"/>
</linearGradient>
<linearGradient id="paint4_linear_434_814" x1="232.987" y1="48.7644" x2="238.922" y2="184.777" gradientUnits="userSpaceOnUse">
<stop stop-color="#FF928E"/>
<stop offset="1" stop-color="#FEB3B1"/>
</linearGradient>
<linearGradient id="paint5_linear_434_814" x1="277.772" y1="46.81" x2="283.707" y2="182.824" gradientUnits="userSpaceOnUse">
<stop stop-color="#FF928E"/>
<stop offset="1" stop-color="#FEB3B1"/>
</linearGradient>
<linearGradient id="paint6_linear_434_814" x1="194.789" y1="30.3585" x2="188.854" y2="166.372" gradientUnits="userSpaceOnUse">
<stop stop-color="#FF928E"/>
<stop offset="1" stop-color="#FEB3B1"/>
</linearGradient>
<linearGradient id="paint7_linear_434_814" x1="257.032" y1="23.0316" x2="205.005" y2="249.791" gradientUnits="userSpaceOnUse">
<stop stop-color="#09005D"/>
<stop offset="1" stop-color="#1A0F91"/>
</linearGradient>
<linearGradient id="paint8_linear_434_814" x1="212.792" y1="61.4637" x2="212.792" y2="97.569" gradientUnits="userSpaceOnUse">
<stop stop-color="#09005D"/>
<stop offset="1" stop-color="#1A0F91"/>
</linearGradient>
<linearGradient id="paint9_linear_434_814" x1="281.901" y1="60.8175" x2="272.009" y2="91.977" gradientUnits="userSpaceOnUse">
<stop stop-color="#09005D"/>
<stop offset="1" stop-color="#1A0F91"/>
</linearGradient>
<linearGradient id="paint10_linear_434_814" x1="251.174" y1="56.319" x2="255.377" y2="88.2155" gradientUnits="userSpaceOnUse">
<stop stop-color="#09005D"/>
<stop offset="1" stop-color="#1A0F91"/>
</linearGradient>
<linearGradient id="paint11_linear_434_814" x1="227.408" y1="7.73611" x2="223.205" y2="39.6326" gradientUnits="userSpaceOnUse">
<stop stop-color="#09005D"/>
<stop offset="1" stop-color="#1A0F91"/>
</linearGradient>
<linearGradient id="paint12_linear_434_814" x1="218.021" y1="175.447" x2="256.85" y2="172.143" gradientUnits="userSpaceOnUse">
<stop stop-color="#E1473D"/>
<stop offset="1" stop-color="#E9605A"/>
</linearGradient>
<linearGradient id="paint13_linear_434_814" x1="190.646" y1="89.8271" x2="208.518" y2="89.8271" gradientUnits="userSpaceOnUse">
<stop stop-color="#DAE3FE"/>
<stop offset="1" stop-color="#E9EFFD"/>
</linearGradient>
<linearGradient id="paint14_linear_434_814" x1="265.244" y1="89.8272" x2="283.116" y2="89.8272" gradientUnits="userSpaceOnUse">
<stop stop-color="#DAE3FE"/>
<stop offset="1" stop-color="#E9EFFD"/>
</linearGradient>
<linearGradient id="paint15_linear_434_814" x1="190.646" y1="193.871" x2="208.518" y2="193.871" gradientUnits="userSpaceOnUse">
<stop stop-color="#DAE3FE"/>
<stop offset="1" stop-color="#E9EFFD"/>
</linearGradient>
<linearGradient id="paint16_linear_434_814" x1="265.244" y1="193.871" x2="283.116" y2="193.871" gradientUnits="userSpaceOnUse">
<stop stop-color="#DAE3FE"/>
<stop offset="1" stop-color="#E9EFFD"/>
</linearGradient>
<linearGradient id="paint17_linear_434_814" x1="197.124" y1="141.686" x2="276.516" y2="141.686" gradientUnits="userSpaceOnUse">
<stop stop-color="#DAE3FE"/>
<stop offset="1" stop-color="#E9EFFD"/>
</linearGradient>
<linearGradient id="paint18_linear_434_814" x1="343.323" y1="151.894" x2="338.213" y2="156.801" gradientUnits="userSpaceOnUse">
<stop stop-color="#53D8FF"/>
<stop offset="1" stop-color="#3840F7"/>
</linearGradient>
<linearGradient id="paint19_linear_434_814" x1="338.998" y1="154.506" x2="342.21" y2="154.506" gradientUnits="userSpaceOnUse">
<stop stop-color="#DAE3FE"/>
<stop offset="1" stop-color="#E9EFFD"/>
</linearGradient>
<linearGradient id="paint20_linear_434_814" x1="343.324" y1="161.963" x2="338.214" y2="166.87" gradientUnits="userSpaceOnUse">
<stop stop-color="#53D8FF"/>
<stop offset="1" stop-color="#3840F7"/>
</linearGradient>
<linearGradient id="paint21_linear_434_814" x1="338.998" y1="164.574" x2="342.21" y2="164.574" gradientUnits="userSpaceOnUse">
<stop stop-color="#DAE3FE"/>
<stop offset="1" stop-color="#E9EFFD"/>
</linearGradient>
<linearGradient id="paint22_linear_434_814" x1="343.324" y1="172.032" x2="338.214" y2="176.939" gradientUnits="userSpaceOnUse">
<stop stop-color="#53D8FF"/>
<stop offset="1" stop-color="#3840F7"/>
</linearGradient>
<linearGradient id="paint23_linear_434_814" x1="338.998" y1="174.643" x2="342.21" y2="174.643" gradientUnits="userSpaceOnUse">
<stop stop-color="#DAE3FE"/>
<stop offset="1" stop-color="#E9EFFD"/>
</linearGradient>
<linearGradient id="paint24_linear_434_814" x1="344.819" y1="154.555" x2="391.49" y2="154.555" gradientUnits="userSpaceOnUse">
<stop stop-color="#DAE3FE"/>
<stop offset="1" stop-color="#E9EFFD"/>
</linearGradient>
<linearGradient id="paint25_linear_434_814" x1="344.819" y1="164.575" x2="391.49" y2="164.575" gradientUnits="userSpaceOnUse">
<stop stop-color="#DAE3FE"/>
<stop offset="1" stop-color="#E9EFFD"/>
</linearGradient>
<linearGradient id="paint26_linear_434_814" x1="344.819" y1="174.595" x2="391.49" y2="174.595" gradientUnits="userSpaceOnUse">
<stop stop-color="#DAE3FE"/>
<stop offset="1" stop-color="#E9EFFD"/>
</linearGradient>
<linearGradient id="paint27_linear_434_814" x1="121.615" y1="122.46" x2="126.724" y2="127.368" gradientUnits="userSpaceOnUse">
<stop stop-color="#53D8FF"/>
<stop offset="1" stop-color="#3840F7"/>
</linearGradient>
<linearGradient id="paint28_linear_434_814" x1="121.615" y1="132.529" x2="126.724" y2="137.436" gradientUnits="userSpaceOnUse">
<stop stop-color="#53D8FF"/>
<stop offset="1" stop-color="#3840F7"/>
</linearGradient>
<linearGradient id="paint29_linear_434_814" x1="121.615" y1="142.598" x2="126.725" y2="147.505" gradientUnits="userSpaceOnUse">
<stop stop-color="#53D8FF"/>
<stop offset="1" stop-color="#3840F7"/>
</linearGradient>
<linearGradient id="paint30_linear_434_814" x1="120.415" y1="179.65" x2="109.081" y2="208.082" gradientUnits="userSpaceOnUse">
<stop stop-color="#09005D"/>
<stop offset="1" stop-color="#1A0F91"/>
</linearGradient>
<linearGradient id="paint31_linear_434_814" x1="129.399" y1="197.176" x2="120.198" y2="218.11" gradientUnits="userSpaceOnUse">
<stop stop-color="#A22B25"/>
<stop offset="1" stop-color="#C0423C"/>
</linearGradient>
<linearGradient id="paint32_linear_434_814" x1="100.919" y1="269.938" x2="96.696" y2="269.938" gradientUnits="userSpaceOnUse">
<stop stop-color="#A737D5"/>
<stop offset="1" stop-color="#EF497A"/>
</linearGradient>
<linearGradient id="paint33_linear_434_814" x1="118.763" y1="286.592" x2="112.686" y2="215.564" gradientUnits="userSpaceOnUse">
<stop stop-color="#A22B25"/>
<stop offset="1" stop-color="#C0423C"/>
</linearGradient>
<linearGradient id="paint34_linear_434_814" x1="120.539" y1="269.167" x2="113.706" y2="269.167" gradientUnits="userSpaceOnUse">
<stop stop-color="#A737D5"/>
<stop offset="1" stop-color="#EF497A"/>
</linearGradient>
<linearGradient id="paint35_linear_434_814" x1="106.539" y1="287.649" x2="100.46" y2="216.602" gradientUnits="userSpaceOnUse">
<stop stop-color="#A22B25"/>
<stop offset="1" stop-color="#C0423C"/>
</linearGradient>
<linearGradient id="paint36_linear_434_814" x1="101.874" y1="216.349" x2="117.068" y2="240.659" gradientUnits="userSpaceOnUse">
<stop stop-color="#4042E2"/>
<stop offset="1" stop-color="#4F52FF"/>
</linearGradient>
<linearGradient id="paint37_linear_434_814" x1="119.43" y1="216.579" x2="118.288" y2="208.228" gradientUnits="userSpaceOnUse">
<stop stop-color="#A22B25"/>
<stop offset="1" stop-color="#C0423C"/>
</linearGradient>
<linearGradient id="paint38_linear_434_814" x1="110.129" y1="227.138" x2="116.018" y2="203.145" gradientUnits="userSpaceOnUse">
<stop stop-color="#A22B25"/>
<stop offset="1" stop-color="#C0423C"/>
</linearGradient>
<linearGradient id="paint39_linear_434_814" x1="122.311" y1="205.812" x2="112.351" y2="188.085" gradientUnits="userSpaceOnUse">
<stop stop-color="#A22B25"/>
<stop offset="1" stop-color="#C0423C"/>
</linearGradient>
<linearGradient id="paint40_linear_434_814" x1="120.169" y1="190.375" x2="115.189" y2="202.868" gradientUnits="userSpaceOnUse">
<stop stop-color="#09005D"/>
<stop offset="1" stop-color="#1A0F91"/>
</linearGradient>
<linearGradient id="paint41_linear_434_814" x1="120.191" y1="207.003" x2="110.23" y2="189.277" gradientUnits="userSpaceOnUse">
<stop stop-color="#A22B25"/>
<stop offset="1" stop-color="#C0423C"/>
</linearGradient>
<linearGradient id="paint42_linear_434_814" x1="131.217" y1="197.975" x2="122.017" y2="218.909" gradientUnits="userSpaceOnUse">
<stop stop-color="#A22B25"/>
<stop offset="1" stop-color="#C0423C"/>
</linearGradient>
<linearGradient id="paint43_linear_434_814" x1="135.627" y1="190.238" x2="133.409" y2="190.238" gradientUnits="userSpaceOnUse">
<stop stop-color="#A22B25"/>
<stop offset="1" stop-color="#C0423C"/>
</linearGradient>
<linearGradient id="paint44_linear_434_814" x1="367.367" y1="338.443" x2="358.355" y2="315.804" gradientUnits="userSpaceOnUse">
<stop stop-color="#09005D"/>
<stop offset="1" stop-color="#1A0F91"/>
</linearGradient>
<linearGradient id="paint45_linear_434_814" x1="344.571" y1="267.08" x2="342.178" y2="267.08" gradientUnits="userSpaceOnUse">
<stop stop-color="#FF928E"/>
<stop offset="1" stop-color="#FEB3B1"/>
</linearGradient>
<linearGradient id="paint46_linear_434_814" x1="350.453" y1="232.861" x2="338.474" y2="266.381" gradientUnits="userSpaceOnUse">
<stop stop-color="#09005D"/>
<stop offset="1" stop-color="#1A0F91"/>
</linearGradient>
<linearGradient id="paint47_linear_434_814" x1="377.196" y1="334.532" x2="368.184" y2="311.893" gradientUnits="userSpaceOnUse">
<stop stop-color="#09005D"/>
<stop offset="1" stop-color="#1A0F91"/>
</linearGradient>
<linearGradient id="paint48_linear_434_814" x1="353.196" y1="266.957" x2="351.13" y2="266.957" gradientUnits="userSpaceOnUse">
<stop stop-color="#FF928E"/>
<stop offset="1" stop-color="#FEB3B1"/>
</linearGradient>
<linearGradient id="paint49_linear_434_814" x1="353.819" y1="234.064" x2="341.84" y2="267.583" gradientUnits="userSpaceOnUse">
<stop stop-color="#09005D"/>
<stop offset="1" stop-color="#1A0F91"/>
</linearGradient>
<linearGradient id="paint50_linear_434_814" x1="345.039" y1="225.045" x2="359.436" y2="221.308" gradientUnits="userSpaceOnUse">
<stop stop-color="#FF928E"/>
<stop offset="1" stop-color="#FEB3B1"/>
</linearGradient>
<linearGradient id="paint51_linear_434_814" x1="337.983" y1="226.951" x2="340.621" y2="212.115" gradientUnits="userSpaceOnUse">
<stop stop-color="#09005D"/>
<stop offset="1" stop-color="#1A0F91"/>
</linearGradient>
<linearGradient id="paint52_linear_434_814" x1="352.005" y1="209.984" x2="345.081" y2="219.985" gradientUnits="userSpaceOnUse">
<stop stop-color="#FF928E"/>
<stop offset="1" stop-color="#FEB3B1"/>
</linearGradient>
<linearGradient id="paint53_linear_434_814" x1="332.623" y1="219.084" x2="335.269" y2="215.055" gradientUnits="userSpaceOnUse">
<stop stop-color="#FF928E"/>
<stop offset="1" stop-color="#FEB3B1"/>
</linearGradient>
<linearGradient id="paint54_linear_434_814" x1="345.628" y1="199.052" x2="347.826" y2="212.789" gradientUnits="userSpaceOnUse">
<stop stop-color="#FF928E"/>
<stop offset="1" stop-color="#FEB3B1"/>
</linearGradient>
<linearGradient id="paint55_linear_434_814" x1="321.811" y1="256.705" x2="324.69" y2="249.848" gradientUnits="userSpaceOnUse">
<stop stop-color="#FF928E"/>
<stop offset="1" stop-color="#FEB3B1"/>
</linearGradient>
<linearGradient id="paint56_linear_434_814" x1="352.637" y1="194.34" x2="343.948" y2="201.203" gradientUnits="userSpaceOnUse">
<stop stop-color="#09005D"/>
<stop offset="1" stop-color="#1A0F91"/>
</linearGradient>
<linearGradient id="paint57_linear_434_814" x1="324.086" y1="257.661" x2="326.966" y2="250.804" gradientUnits="userSpaceOnUse">
<stop stop-color="#FF928E"/>
<stop offset="1" stop-color="#FEB3B1"/>
</linearGradient>
</defs>
</svg>
